<?xml version="1.0" encoding="UTF-8" standalone="no"?>
<!-- Created with Inkscape (http://www.inkscape.org/) -->

<svg
   version="1.1"
   id="svg1774"
   xml:space="preserve"
   width="209.90277mm"
   height="297.03891mm"
   viewBox="0 0 793.33331 1122.6667"
   sodipodi:docname="base pcb.svg"
   inkscape:version="1.1 (c68e22c387, 2021-05-23)"
   xmlns:inkscape="http://www.inkscape.org/namespaces/inkscape"
   xmlns:sodipodi="http://sodipodi.sourceforge.net/DTD/sodipodi-0.dtd"
   xmlns="http://www.w3.org/2000/svg"
   xmlns:svg="http://www.w3.org/2000/svg"><defs
     id="defs1778"><clipPath
       clipPathUnits="userSpaceOnUse"
       id="clipPath1788"><path
         d="M 1045,1780 H 3679 V 4433 H 1045 V 1780"
         id="path1786" /></clipPath></defs><sodipodi:namedview
     id="namedview1776"
     pagecolor="#ffffff"
     bordercolor="#666666"
     borderopacity="1.0"
     inkscape:pageshadow="2"
     inkscape:pageopacity="0.0"
     inkscape:pagecheckerboard="0"
     showgrid="false"
     inkscape:document-units="mm"
     units="mm"
     inkscape:zoom="1.0606601"
     inkscape:cx="218.26031"
     inkscape:cy="642.52441"
     inkscape:window-width="1920"
     inkscape:window-height="1027"
     inkscape:window-x="-8"
     inkscape:window-y="-8"
     inkscape:window-maximized="1"
     inkscape:current-layer="g1780" /><g
     id="g1780"
     inkscape:groupmode="layer"
     inkscape:label="base pcb"
     transform="matrix(0.16,0,0,-0.16,18.666666,1058.6667)"><path
       d="M 3533,3038.5 C 3533,3691.0244 3004.4722,4220 2352.5,4220 1700.5278,4220 1172,3691.0244 1172,3038.5 1172,2385.9756 1700.5278,1857 2352.5,1857 3004.4722,1857 3533,2385.9756 3533,3038.5"
       style="fill:none;stroke:#cd2027;stroke-width:4.72440933;stroke-linecap:round;stroke-linejoin:round;stroke-miterlimit:10;stroke-dasharray:none;stroke-opacity:1"
       id="path1790" /><path
       d="m 1664,3844.5 c 0,19.6062 -15.8939,35.5 -35.5,35.5 -19.6061,0 -35.5,-15.8938 -35.5,-35.5 0,-19.6062 15.8939,-35.5 35.5,-35.5 19.6061,0 35.5,15.8938 35.5,35.5"
       style="fill:none;stroke:#ff0000;stroke-width:4.72440933;stroke-linecap:round;stroke-linejoin:round;stroke-miterlimit:10;stroke-dasharray:none;stroke-opacity:1"
       id="path1792" /><path
       d="m 3111,3844.5 c 0,19.6062 -15.8938,35.5 -35.5,35.5 -19.6062,0 -35.5,-15.8938 -35.5,-35.5 0,-19.6062 15.8938,-35.5 35.5,-35.5 19.6062,0 35.5,15.8938 35.5,35.5"
       style="fill:none;stroke:#ff0000;stroke-width:4.72440933;stroke-linecap:round;stroke-linejoin:round;stroke-miterlimit:10;stroke-dasharray:none;stroke-opacity:1"
       id="path1794" /><path
       d="m 3111,2232.5 c 0,19.6062 -15.8938,35.5 -35.5,35.5 -19.6062,0 -35.5,-15.8938 -35.5,-35.5 0,-19.6062 15.8938,-35.5 35.5,-35.5 19.6062,0 35.5,15.8938 35.5,35.5"
       style="fill:none;stroke:#ff0000;stroke-width:4.72440933;stroke-linecap:round;stroke-linejoin:round;stroke-miterlimit:10;stroke-dasharray:none;stroke-opacity:1"
       id="path1796" /><path
       d="m 1664,2232.5 c 0,19.6062 -15.8939,35.5 -35.5,35.5 -19.6061,0 -35.5,-15.8938 -35.5,-35.5 0,-19.6062 15.8939,-35.5 35.5,-35.5 19.6061,0 35.5,15.8938 35.5,35.5"
       style="fill:none;stroke:#ff0000;stroke-width:4.72440933;stroke-linecap:round;stroke-linejoin:round;stroke-miterlimit:10;stroke-dasharray:none;stroke-opacity:1"
       id="path1798" /><path
       d="m 2388,3755.5 c 0,19.6062 -15.8938,35.5 -35.5,35.5 -19.6062,0 -35.5,-15.8938 -35.5,-35.5 0,-19.6062 15.8938,-35.5 35.5,-35.5 19.6062,0 35.5,15.8938 35.5,35.5"
       style="fill:none;stroke:#ff0000;stroke-width:4.72440933;stroke-linecap:round;stroke-linejoin:round;stroke-miterlimit:10;stroke-dasharray:none;stroke-opacity:1"
       id="path1800" /><path
       d="m 3104,3038.5 c 0,19.6062 -15.8938,35.5 -35.5,35.5 -19.6062,0 -35.5,-15.8938 -35.5,-35.5 0,-19.6062 15.8938,-35.5 35.5,-35.5 19.6062,0 35.5,15.8938 35.5,35.5"
       style="fill:none;stroke:#ff0000;stroke-width:4.72440933;stroke-linecap:round;stroke-linejoin:round;stroke-miterlimit:10;stroke-dasharray:none;stroke-opacity:1"
       id="path1802" /><path
       d="m 1671,3038.5 c 0,19.6062 -15.8939,35.5 -35.5,35.5 -19.6061,0 -35.5,-15.8938 -35.5,-35.5 0,-19.6062 15.8939,-35.5 35.5,-35.5 19.6061,0 35.5,15.8938 35.5,35.5"
       style="fill:none;stroke:#ff0000;stroke-width:4.72440933;stroke-linecap:round;stroke-linejoin:round;stroke-miterlimit:10;stroke-dasharray:none;stroke-opacity:1"
       id="path1804" /><path
       d="m 2388,2321.5 c 0,19.6062 -15.8938,35.5 -35.5,35.5 -19.6062,0 -35.5,-15.8938 -35.5,-35.5 0,-19.6062 15.8938,-35.5 35.5,-35.5 19.6062,0 35.5,15.8938 35.5,35.5"
       style="fill:none;stroke:#ff0000;stroke-width:4.72440933;stroke-linecap:round;stroke-linejoin:round;stroke-miterlimit:10;stroke-dasharray:none;stroke-opacity:1"
       id="path1806" /></g></svg>
