<?xml version="1.0" encoding="UTF-8" standalone="no"?>
<!-- Created with Inkscape (http://www.inkscape.org/) -->

<svg
   version="1.1"
   id="svg1774"
   xml:space="preserve"
   width="100mm"
   height="100mm"
   viewBox="0 0 377.95276 377.95274"
   sodipodi:docname="base pcb.svg"
   inkscape:version="1.1 (c68e22c387, 2021-05-23)"
   xmlns:inkscape="http://www.inkscape.org/namespaces/inkscape"
   xmlns:sodipodi="http://sodipodi.sourceforge.net/DTD/sodipodi-0.dtd"
   xmlns="http://www.w3.org/2000/svg"
   xmlns:svg="http://www.w3.org/2000/svg"><defs
     id="defs1778"><clipPath
       clipPathUnits="userSpaceOnUse"
       id="clipPath1788"><path
         d="M 1045,1780 H 3679 V 4433 H 1045 V 1780"
         id="path1786" /></clipPath></defs><sodipodi:namedview
     id="namedview1776"
     pagecolor="#ffffff"
     bordercolor="#666666"
     borderopacity="1.0"
     inkscape:pageshadow="2"
     inkscape:pageopacity="0.0"
     inkscape:pagecheckerboard="0"
     showgrid="false"
     inkscape:document-units="mm"
     units="mm"
     inkscape:zoom="1.4999999"
     inkscape:cx="96.33334"
     inkscape:cy="185.00001"
     inkscape:window-width="1920"
     inkscape:window-height="1027"
     inkscape:window-x="-8"
     inkscape:window-y="-8"
     inkscape:window-maximized="1"
     inkscape:current-layer="g1780"
     showguides="false"
     width="100mm" /><g
     id="g1780"
     inkscape:groupmode="layer"
     inkscape:label="base pcb"
     transform="matrix(0.16,0,0,-0.16,18.666666,1058.6667)"><path
       d="m 2243.1804,5435.5663 c 0,651.0017 -527.7419,1178.7429 -1178.7447,1178.7429 -651.00277,0 -1178.74467,-527.7412 -1178.74467,-1178.7429 0,-651.0017 527.7419,-1178.7429 1178.74467,-1178.7429 651.0028,0 1178.7447,527.7412 1178.7447,1178.7429"
       style="fill:none;stroke:#cd2027;stroke-width:4.71538;stroke-linecap:round;stroke-linejoin:round;stroke-miterlimit:10;stroke-dasharray:none;stroke-opacity:1"
       id="path1790" /><path
       d="m 376.95943,6239.6854 c 0,19.5605 -15.8703,35.4172 -35.4472,35.4172 -19.577,0 -35.4472,-15.8567 -35.4472,-35.4172 0,-19.5604 15.8702,-35.4171 35.4472,-35.4171 19.5769,0 35.4472,15.8567 35.4472,35.4171"
       style="fill:none;stroke:#ff0000;stroke-width:4.71538;stroke-linecap:round;stroke-linejoin:round;stroke-miterlimit:10;stroke-dasharray:none;stroke-opacity:1"
       id="path1792" /><path
       d="m 1821.8079,6239.6854 c 0,19.5605 -15.8702,35.4172 -35.4472,35.4172 -19.5771,0 -35.4472,-15.8567 -35.4472,-35.4172 0,-19.5604 15.8701,-35.4171 35.4472,-35.4171 19.577,0 35.4472,15.8567 35.4472,35.4171"
       style="fill:none;stroke:#ff0000;stroke-width:4.71538;stroke-linecap:round;stroke-linejoin:round;stroke-miterlimit:10;stroke-dasharray:none;stroke-opacity:1"
       id="path1794" /><path
       d="m 1821.8079,4631.4472 c 0,19.5604 -15.8702,35.4171 -35.4472,35.4171 -19.5771,0 -35.4472,-15.8567 -35.4472,-35.4171 0,-19.5605 15.8701,-35.4172 35.4472,-35.4172 19.577,0 35.4472,15.8567 35.4472,35.4172"
       style="fill:none;stroke:#ff0000;stroke-width:4.71538;stroke-linecap:round;stroke-linejoin:round;stroke-miterlimit:10;stroke-dasharray:none;stroke-opacity:1"
       id="path1796" /><path
       d="m 376.95943,4631.4472 c 0,19.5604 -15.8703,35.4171 -35.4472,35.4171 -19.577,0 -35.4472,-15.8567 -35.4472,-35.4171 0,-19.5605 15.8702,-35.4172 35.4472,-35.4172 19.5769,0 35.4472,15.8567 35.4472,35.4172"
       style="fill:none;stroke:#ff0000;stroke-width:4.71538;stroke-linecap:round;stroke-linejoin:round;stroke-miterlimit:10;stroke-dasharray:none;stroke-opacity:1"
       id="path1798" /><path
       d="m 1099.8829,6150.8931 c 0,19.5605 -15.8701,35.4172 -35.4472,35.4172 -19.577,0 -35.4472,-15.8567 -35.4472,-35.4172 0,-19.5604 15.8702,-35.4171 35.4472,-35.4171 19.5771,0 35.4472,15.8567 35.4472,35.4171"
       style="fill:none;stroke:#ff0000;stroke-width:4.71538;stroke-linecap:round;stroke-linejoin:round;stroke-miterlimit:10;stroke-dasharray:none;stroke-opacity:1"
       id="path1800" /><path
       d="m 1814.8183,5435.5663 c 0,19.5604 -15.8702,35.4172 -35.4472,35.4172 -19.5771,0 -35.4472,-15.8568 -35.4472,-35.4172 0,-19.5605 15.8701,-35.4172 35.4472,-35.4172 19.577,0 35.4472,15.8567 35.4472,35.4172"
       style="fill:none;stroke:#ff0000;stroke-width:4.71538;stroke-linecap:round;stroke-linejoin:round;stroke-miterlimit:10;stroke-dasharray:none;stroke-opacity:1"
       id="path1802" /><path
       d="m 383.94903,5435.5663 c 0,19.5604 -15.8703,35.4172 -35.4472,35.4172 -19.577,0 -35.4472,-15.8568 -35.4472,-35.4172 0,-19.5605 15.8702,-35.4172 35.4472,-35.4172 19.5769,0 35.4472,15.8567 35.4472,35.4172"
       style="fill:none;stroke:#ff0000;stroke-width:4.71538;stroke-linecap:round;stroke-linejoin:round;stroke-miterlimit:10;stroke-dasharray:none;stroke-opacity:1"
       id="path1804" /><path
       d="m 1099.8829,4720.2395 c 0,19.5604 -15.8701,35.4171 -35.4472,35.4171 -19.577,0 -35.4472,-15.8567 -35.4472,-35.4171 0,-19.5605 15.8702,-35.4172 35.4472,-35.4172 19.5771,0 35.4472,15.8567 35.4472,35.4172"
       style="fill:none;stroke:#ff0000;stroke-width:4.71538;stroke-linecap:round;stroke-linejoin:round;stroke-miterlimit:10;stroke-dasharray:none;stroke-opacity:1"
       id="path1806" /></g></svg>
