<?xml version="1.0" encoding="utf-8"?>
<!-- Generator: Adobe Illustrator 25.0.0, SVG Export Plug-In . SVG Version: 6.00 Build 0)  -->
<svg version="1.1" id="Capa_1" xmlns="http://www.w3.org/2000/svg" xmlns:xlink="http://www.w3.org/1999/xlink" x="0px" y="0px"
	 viewBox="0 0 1440 810" style="enable-background:new 0 0 1440 810;" xml:space="preserve">
<style type="text/css">
	.st0{fill:none;stroke:#BF0000;stroke-miterlimit:10;}
	.st1{fill:none;stroke:#DF0000;stroke-miterlimit:10;}
	.st2{fill:none;stroke:#FF0A0A;stroke-miterlimit:10;}
	.st3{fill:none;stroke:#F42900;stroke-miterlimit:10;}
	.st4{fill-rule:evenodd;clip-rule:evenodd;fill:none;stroke:#C90000;stroke-miterlimit:10;}
	.st5{fill:none;stroke:#C90000;stroke-miterlimit:10;}
	.st6{fill:none;stroke:#F40000;stroke-miterlimit:10;}
</style>
<path class="st0" d="M362.6,387.8c-1.4,0-2.8-0.3-4.1-1l-95.4-50.2l-95.4,50.2c-2.9,1.5-6.5,1.3-9.2-0.7s-4-5.2-3.5-8.5l18.2-106.2
	l-77.2-75.2c-2.4-2.3-3.2-5.8-2.2-8.9c1-3.1,3.8-5.4,7-5.9l106.6-15.5l47.7-96.6c1.5-3,4.5-4.9,7.8-4.9s6.3,1.9,7.8,4.9l47.7,96.6
	l106.6,15.5c3.3,0.5,6,2.8,7,5.9c1,3.2,0.2,6.6-2.2,8.9l-77.2,75.2l18.2,106.2c0.6,3.3-0.8,6.6-3.5,8.5
	C366.2,387.2,364.4,387.8,362.6,387.8z"/>
<g>
	<path class="st1" d="M780.6,111.6c26.7,9.1,29.9,53.4,10,72.6c42.2,45.5-35.3,95.7-77.8,36.6c-38.6,1.4-77.7-3.8-116.1-2.2
		c-9.7,0.7-23.8,1.8-31.1,6.1c-9.8,7.6-14.3,19.6-27.2,22.7c-44,9.3-59.9-38.8-31.7-65.9c-53.4-47.8,27.5-102.2,60.5-38.2
		c33.8,0.7,146.4,12.7,169.4-7.2c4.7-4.5,7.7-9.1,9.4-15C753.4,110,766.9,106.9,780.6,111.6z"/>
</g>
<path class="st2" d="M910.7,230.9c-1.4,0-2.8,0-4.2-0.2c-17.3-1.9-31.2-16-32.8-33.6c-1.2-12,3.7-24.1,13-32l19.2-20.2
	c8.1-8.6,19-13.2,30.5-13.2s22.4,4.6,30.5,13.2l20.1,21.1c8.8,8.1,13.2,19.5,11.8,31.5c-1.9,17.4-15.7,31.3-32.8,33.1
	c-8.6,0.9-16.9-0.9-24.1-5.6c-3.5-2.3-7.9-2.3-11.3,0C924.6,228.8,917.9,230.9,910.7,230.9z"/>
<path class="st2" d="M956.8,128c-1.2,0-2.3-0.2-3.5-0.5c-5.6-1.6-9.5-6.7-11.3-14.6c-1.6-7.2-1.2-16.2,1.4-25
	c2.5-8.8,6.9-16.4,12.3-21.8c5.6-5.6,11.8-7.9,17.3-6.3s9.5,6.7,11.3,14.6c1.6,7.2,1.2,16.2-1.4,25c-2.5,8.8-6.9,16.4-12.3,21.8
	C966,125.7,961.4,128,956.8,128z"/>
<path class="st2" d="M997.7,164.2c-1.2,0-2.3-0.2-3.5-0.5c-5.6-1.6-9.5-6.7-11.3-14.6c-1.6-7.2-1.2-16.2,1.4-25
	c5.6-19,18.5-31.3,29.4-28c5.6,1.6,9.5,6.7,11.3,14.6c1.6,7.2,1.2,16.2-1.4,25c-2.5,8.8-6.9,16.4-12.3,21.8
	C1007.2,161.9,1002.3,164.2,997.7,164.2z"/>
<path class="st2" d="M917,128c-4.6,0-9.3-2.3-13.6-6.7c-5.3-5.3-9.7-13-12.3-21.8c-2.5-8.8-3-17.6-1.4-25c1.9-7.9,5.8-13,11.3-14.6
	s11.6,0.7,17.3,6.3c5.3,5.3,9.7,13,12.3,21.8s3,17.6,1.4,25c-1.8,7.9-5.8,13-11.3,14.6C919.3,128,918.1,128,917,128z"/>
<path class="st2" d="M876,164.2c-4.6,0-9.2-2.3-13.6-6.7c-5.3-5.3-9.7-13-12.3-21.8c-2.5-8.8-3-17.6-1.4-25
	c1.9-7.9,5.8-13,11.3-14.6c11.1-3.2,24.1,9,29.4,28c2.5,8.8,3,17.6,1.4,25c-1.8,7.9-5.8,13-11.3,14.6
	C878.4,163.9,877.2,164.2,876,164.2z"/>
<g>
	<path class="st3" d="M112,616.8c31.8,56.1,97.7,146.4,135.6,148c87.1-20.1,248.8-265,110.8-319.3c-71.4-24-109.7,53.7-108.4,114.6
		c22.4-187.1,247.1-115.8,96.9,104.3c-27.3,36.2-59.9,72.9-103.4,88.7C227.9,757.4,50.4,568,111.8,494.4
		c49.7-54.5,122.2,8.7,138.2,65.7C201.6,386.9,20.9,466.2,112,616.8"/>
</g>
<g id="XMLID_1275_">
	<g id="XMLID_1284_">
		<g id="XMLID_1285_">
			<path id="XMLID_1293_" class="st4" d="M611.6,508.2c0.3,0.1,0.6,0.3,0.9,0.4c3.3,1.2,5.1,4.2,4.6,7.7c-0.4,3-3.1,5.5-6.4,5.7
				c-0.6,0-1.3,0-1.9,0c-28.1,0-56.1,0-84.2,0c-1.9,0-1.9,0-1.9,1.9c0,33.3,0,66.7,0,100c0,0.5,0,1.1,0,1.8c0.7,0,1.3,0,1.9,0
				c28.8,0,57.5,0,86.3,0c4.1,0,7.1,2.7,7.3,6.5c0.2,4-2.8,7.2-7.1,7.3c-1,0-2.1,0-3.1,0c-30.1,0-60.3,0-90.4,0
				c-5.1,0-6.7-1-8.7-5.7c0-40.1,0-80.1,0-120.2c0.5-0.9,0.8-2.1,1.5-2.8c1.2-1.1,2.7-1.8,4-2.7
				C546.9,508.2,579.2,508.2,611.6,508.2z"/>
			<path id="XMLID_1286_" class="st4" d="M562.2,550.9c2.6-4.6,6.5-7.3,11.5-8.1c7.8-1.3,14.8,0.2,19.7,7c1,1.4,1.8,1.7,3.4,1.3
				c2.4-0.6,5-0.7,7.4,0.1c2.3,0.7,3.9,2.2,4.7,4.5c1,3,2,6,1.5,9.3c-0.6,4.8-6.1,10.1-11.9,9c-1.8-0.3-3.4,0.6-5.1,1.1
				c-1.1,0.3-1.4,1.5-1.4,2.6c0,2.8,0,5.6,0,8.4c0,5.5,0,11,0,16.6c0,2.6,0.9,3.5,3.5,3.7c0.4,0,0.8,0.4,1.3,0.6
				c0.3,0.1,0.7,0.2,1,0.2c3.3,0,6.7,0,10,0c2.8,0,5.1,2,5.5,4.6c0.4,2.9-1.1,5.5-3.8,6.2c-0.6,0.2-1.3,0.2-2,0.2
				c-25.6,0-51.3,0-76.9,0c-0.4,0-0.8-0.1-1.3-0.1c0-0.4-0.1-0.8-0.1-1.2c0-25.2,0-50.3,0-75.5c0-2.6,1.5-4.7,3.8-5.4
				c2.3-0.7,4.8,0.1,6.2,2.1c0.9,1.2,1,2.6,1,4.1c0,19.8,0,39.6,0,59.5c0,1.8,0,3.7,0,5.6c1.3,0,2.5,0,3.7,0c4.6,0,9.2,0,13.8,0
				c0.6,0,1.3,0.2,1.6-0.6c0.1-0.2,0.7-0.2,1-0.2c2.6-0.1,3.5-0.9,3.5-3.5c0-8.3,0-16.7,0-25.1c0-1.9-0.8-2.8-2.7-3.1
				c-1.4-0.2-2.9-0.1-4.3-0.3c-5-0.4-8.3-3.1-9.8-7.9c-0.9-3-1.2-6.1-0.6-9.2C547.9,549.9,555.6,546.7,562.2,550.9z M572.1,591.1
				c0,4.1-0.1,8,0,11.9c0.1,2.5,1,3.2,3.5,3.4c0.4,0,0.8,0.5,1.2,0.5c0.7,0.1,2,0.4,2.2,0.1c0.5-0.8,1.2-0.6,1.8-0.7
				c2.1-0.2,2.9-1,3-3.1c0.1-3.8,0.1-7.5,0.1-11.3c0-0.8-0.4-0.9-1-0.9c-1.5,0-2.9,0-4.4,0C576.4,591.1,574.3,591.1,572.1,591.1z
				 M583.7,588.8c0-4.1,0.1-8.2,0-12.3c0-1.2-1.3-1.7-2.4-1.4c-2.1,0.7-4.2,0.8-6.3,0.1c-1.7-0.5-2.7,0.1-2.8,2
				c-0.1,2.3-0.1,4.6-0.2,6.9c0,1.5,0,3.1,0,4.7C576,588.8,579.9,588.8,583.7,588.8z M595.5,573.6c-1.2-0.7-2.4-1.3-3.5-2.1
				c-1.2-0.9-2.6-0.9-3.8-0.3c-1.2,0.5-2.3,1.4-3.4,2.2c0,0.1,0.1,0.2,0.1,0.2C588.4,573.6,591.9,573.6,595.5,573.6z M571.4,573.6
				c-1-0.8-1.8-1.4-2.6-2c-0.3-0.2-0.6-0.5-0.9-0.6c-1.7-0.6-3.2-0.7-4.3,0.9c-0.4,0.6-0.9,1.1-1.4,1.8
				C565.2,573.6,568.1,573.6,571.4,573.6z"/>
		</g>
	</g>
	<g id="XMLID_1276_">
		<g id="XMLID_1281_">
			<path id="XMLID_1282_" class="st5" d="M1077.4,579.1c-2.7-0.6-4.5-2.5-6-4.7c-1.4-2-2.7-4.1-4.1-6.2c-0.6-0.9-1.2-1.6-2.4-1
				c-3.3,1.7-6.8,1.9-10.3,1.9c-89.1,0-336.8,0-403,0c-1.5,0-3.1,0.2-4.2-1.3c0-0.5,0-1.1,0-1.6c1-0.5,2-1,3.1-1.4
				c0.5-0.2,1.1,0,1.6,0c154.9,0,247,0,401.9,0.1c3,0,5.8-0.1,8.6-1c1.8-0.5,2.5-1.5,2.6-3.3c0.1-2,0.2-4,0.4-6
				c0.4-3.2,2-5.6,4.6-7.7c3.4-2.7,6.6-5.6,9.9-8.4c0.3,0,0.5,0,0.8,0c-0.2,4.5-0.2,9.1-1.8,13.4c-0.5,1.4,0.2,1.7,1.6,1.6
				c1.8-0.2,3.7-0.4,5.5-0.3c3.1,0.2,6.1,0.7,9.1,1c0.6,0.1,1.2,0.1,2.4,0.3c-5.3,4.4-9,9.8-14.7,12.4c3,3.3,5.9,6.5,8.9,9.8
				c-0.4,0.1-1,0.2-1.5,0.2c-4.3,0.7-8.5,1.4-12.8,2C1077.7,579.1,1077.5,579.1,1077.4,579.1z"/>
		</g>
		<g>
			<path class="st5" d="M668.2,620.4c0,8.6,0,13.2,1.4,14.4c1.1,1,2.9,1.5,8.1,1.5c3.6,0,6.2-0.1,7.9-1.9c0.8-0.9,1.6-2.8,1.7-4
				c0.1-0.6,0.2-1,0.7-1c0.5,0,0.5,0.3,0.5,1.1c0,0.7-0.5,5.8-1,7.7c-0.4,1.5-0.7,1.8-4.2,1.8c-4.8,0-8.3-0.1-11.3-0.2
				c-3-0.1-5.4-0.2-8.2-0.2c-0.7,0-2.2,0-3.8,0.1c-1.5,0-3.3,0.1-4.6,0.1c-0.9,0-1.3-0.2-1.3-0.7c0-0.3,0.3-0.5,1.1-0.5
				c1,0,1.8-0.1,2.4-0.3c1.3-0.3,1.7-1.7,1.9-3.7c0.3-2.8,0.3-8.1,0.3-14.3v-11.8c0-10.2,0-12.1-0.1-14.2c-0.1-2.3-0.7-3.4-2.9-3.8
				c-0.5-0.1-1.3-0.2-2.2-0.2c-0.7,0-1.1-0.1-1.1-0.6c0-0.5,0.5-0.6,1.5-0.6c3.2,0,7.4,0.2,9.2,0.2c1.6,0,6.5-0.2,9.1-0.2
				c0.9,0,1.4,0.1,1.4,0.6c0,0.5-0.4,0.6-1.2,0.6c-0.7,0-1.8,0.1-2.6,0.2c-1.8,0.3-2.3,1.5-2.5,3.8c-0.1,2.1-0.1,4-0.1,14.2
				L668.2,620.4L668.2,620.4z"/>
			<path class="st5" d="M709.5,622.4c-0.3,0-0.5,0.1-0.6,0.5l-3.6,9.6c-0.7,1.7-1,3.3-1,4.1c0,1.2,0.6,2.1,2.7,2.1h1
				c0.8,0,1,0.1,1,0.5c0,0.5-0.4,0.7-1.1,0.7c-2.1,0-5-0.2-7.1-0.2c-0.7,0-4.4,0.2-7.9,0.2c-0.9,0-1.3-0.1-1.3-0.7
				c0-0.4,0.3-0.5,0.8-0.5c0.6,0,1.5-0.1,2.1-0.1c3.1-0.4,4.4-2.7,5.7-6l16.9-42.2c0.8-1.9,1.2-2.7,1.9-2.7c0.6,0,1,0.6,1.7,2.1
				c1.6,3.7,12.4,31.1,16.7,41.3c2.6,6,4.5,7,5.9,7.3c1,0.2,2,0.3,2.8,0.3c0.5,0,0.9,0.1,0.9,0.5c0,0.5-0.6,0.7-3.1,0.7
				c-2.4,0-7.3,0-12.7-0.1c-1.2-0.1-2-0.1-2-0.5c0-0.4,0.3-0.5,0.9-0.6c0.5-0.1,0.9-0.7,0.6-1.5l-5.4-14.2c-0.1-0.3-0.3-0.5-0.7-0.5
				L709.5,622.4L709.5,622.4z M723.2,619c0.3,0,0.4-0.2,0.3-0.4l-6-16.6c-0.1-0.3-0.1-0.6-0.3-0.6c-0.2,0-0.3,0.3-0.4,0.6l-6.2,16.5
				c-0.1,0.3,0,0.5,0.3,0.5H723.2L723.2,619z"/>
			<path class="st5" d="M751.6,639.1c-1.1-0.5-1.3-0.8-1.3-2.3c0-3.7,0.3-7.7,0.3-8.8c0.1-1,0.3-1.7,0.8-1.7c0.6,0,0.7,0.6,0.7,1.1
				c0,0.9,0.3,2.3,0.6,3.4c1.5,5,5.4,6.8,9.6,6.8c6,0,9-4.1,9-7.7c0-3.3-1-6.4-6.6-10.7l-3.1-2.4c-7.4-5.8-9.9-10.5-9.9-15.9
				c0-7.4,6.2-12.7,15.5-12.7c4.4,0,7.2,0.7,8.9,1.1c0.6,0.1,0.9,0.3,0.9,0.8c0,0.9-0.3,2.8-0.3,8.1c0,1.5-0.2,2-0.7,2
				c-0.5,0-0.7-0.4-0.7-1.2c0-0.6-0.3-2.7-1.7-4.4c-1-1.3-3-3.3-7.3-3.3c-5,0-8,2.9-8,6.9c0,3.1,1.5,5.4,7.1,9.7l1.9,1.4
				c8.1,6.1,11,10.7,11,17.1c0,3.9-1.5,8.5-6.3,11.7c-3.4,2.1-7.1,2.8-10.7,2.8C757.5,640.8,754.5,640.4,751.6,639.1z"/>
			<path class="st5" d="M852.3,610.5c0.2,0,0.4-0.1,0.4-0.5v-1.4c0-10.2,0-12.1-0.1-14.2c-0.1-2.3-0.7-3.4-2.9-3.8
				c-0.5-0.1-1.7-0.2-2.6-0.2c-0.7,0-1.1-0.1-1.1-0.6c0-0.5,0.5-0.6,1.4-0.6c3.6,0,7.9,0.2,9.7,0.2c1.6,0,5.8-0.2,8.5-0.2
				c0.9,0,1.4,0.1,1.4,0.6c0,0.5-0.4,0.6-1.2,0.6c-0.5,0-1.1,0.1-1.9,0.2c-1.8,0.3-2.3,1.5-2.5,3.8c-0.1,2.1-0.1,4-0.1,14.2v11.8
				c0,6.2,0,11.5,0.3,14.4c0.2,1.9,0.6,3.4,2.6,3.6c0.9,0.1,2.4,0.3,3.4,0.3c0.7,0,1.1,0.2,1.1,0.5c0,0.5-0.5,0.7-1.3,0.7
				c-4.4,0-8.6-0.2-10.5-0.2c-1.5,0-5.8,0.2-8.4,0.2c-0.9,0-1.4-0.2-1.4-0.7c0-0.3,0.3-0.5,1.1-0.5c1,0,1.8-0.1,2.4-0.3
				c1.3-0.3,1.7-1.7,1.9-3.7c0.3-2.8,0.3-8.1,0.3-14.3v-5.9c0-0.3-0.2-0.4-0.4-0.4h-25.6c-0.2,0-0.4,0.1-0.4,0.4v5.9
				c0,6.2,0,11.5,0.3,14.4c0.2,1.9,0.6,3.4,2.6,3.6c0.9,0.1,2.4,0.3,3.4,0.3c0.7,0,1.1,0.2,1.1,0.5c0,0.5-0.5,0.7-1.3,0.7
				c-4.4,0-8.6-0.2-10.5-0.2c-1.5,0-5.8,0.2-8.5,0.2c-0.9,0-1.3-0.2-1.3-0.7c0-0.3,0.3-0.5,1.1-0.5c1,0,1.8-0.1,2.4-0.3
				c1.3-0.3,1.7-1.7,1.9-3.7c0.3-2.8,0.3-8.1,0.3-14.3v-11.8c0-10.2,0-12.1-0.1-14.2c-0.1-2.3-0.7-3.4-2.9-3.8
				c-0.5-0.1-1.7-0.2-2.6-0.2c-0.7,0-1.1-0.1-1.1-0.6c0-0.5,0.5-0.6,1.4-0.6c3.6,0,7.9,0.2,9.7,0.2c1.6,0,5.8-0.2,8.5-0.2
				c0.9,0,1.4,0.1,1.4,0.6c0,0.5-0.4,0.6-1.2,0.6c-0.5,0-1.1,0.1-1.9,0.2c-1.8,0.3-2.3,1.5-2.5,3.8c-0.1,2.1-0.1,4-0.1,14.2v1.4
				c0,0.3,0.2,0.5,0.4,0.5L852.3,610.5L852.3,610.5z"/>
			<path class="st5" d="M890.8,622.4c-0.3,0-0.5,0.1-0.6,0.5l-3.6,9.6c-0.7,1.7-1,3.3-1,4.1c0,1.2,0.6,2.1,2.7,2.1h1
				c0.8,0,1,0.1,1,0.5c0,0.5-0.4,0.7-1.1,0.7c-2.1,0-5-0.2-7.1-0.2c-0.7,0-4.4,0.2-7.9,0.2c-0.9,0-1.3-0.1-1.3-0.7
				c0-0.4,0.3-0.5,0.8-0.5c0.6,0,1.5-0.1,2.1-0.1c3.1-0.4,4.4-2.7,5.7-6l16.9-42.2c0.8-1.9,1.2-2.7,1.9-2.7c0.6,0,1,0.6,1.7,2.1
				c1.6,3.7,12.4,31.1,16.7,41.3c2.6,6,4.5,7,5.9,7.3c1,0.2,2,0.3,2.8,0.3c0.5,0,0.9,0.1,0.9,0.5c0,0.5-0.6,0.7-3.1,0.7
				c-2.4,0-7.3,0-12.7-0.1c-1.2-0.1-2-0.1-2-0.5c0-0.4,0.3-0.5,0.9-0.6c0.5-0.1,0.9-0.7,0.6-1.5l-5.4-14.2c-0.1-0.3-0.3-0.5-0.7-0.5
				L890.8,622.4L890.8,622.4z M904.5,619c0.3,0,0.4-0.2,0.3-0.4l-6-16.6c-0.1-0.3-0.1-0.6-0.3-0.6c-0.2,0-0.3,0.3-0.4,0.6l-6.2,16.5
				c-0.1,0.3,0,0.5,0.3,0.5H904.5L904.5,619z"/>
			<path class="st5" d="M943.7,622.5c0-3.6-0.7-5.1-1.5-7c-0.5-1.1-9.5-15.8-11.8-19.3c-1.7-2.5-3.4-4.2-4.6-4.9
				c-0.9-0.5-2-0.9-2.8-0.9c-0.5,0-1-0.1-1-0.6c0-0.4,0.5-0.6,1.3-0.6c1.2,0,6.2,0.2,8.5,0.2c1.4,0,4.2-0.2,7.2-0.2
				c0.7,0,1,0.2,1,0.6s-0.5,0.5-1.5,0.7c-0.6,0.1-0.9,0.7-0.9,1.2c0,0.5,0.3,1.3,0.8,2.3c0.9,2,10.3,18.2,11.4,20.1
				c0.7-1.6,9.1-16.4,10.1-18.5c0.7-1.5,0.9-2.6,0.9-3.5c0-0.7-0.3-1.4-1.4-1.7c-0.6-0.1-1.2-0.3-1.2-0.7c0-0.5,0.3-0.6,1.1-0.6
				c2.2,0,4.4,0.2,6.3,0.2c1.5,0,5.9-0.2,7.2-0.2c0.7,0,1.2,0.1,1.2,0.5c0,0.5-0.5,0.7-1.3,0.7c-0.7,0-1.9,0.3-3,0.8
				c-1.4,0.7-2.1,1.5-3.6,3.3c-2.2,2.7-11.6,18.5-12.8,21.3c-1,2.4-1,4.5-1,6.7v5.5c0,1.1,0,3.9,0.2,6.7c0.1,1.9,0.7,3.4,2.8,3.7
				c0.9,0.1,2.4,0.3,3.4,0.3c0.7,0,1.1,0.2,1.1,0.5c0,0.5-0.5,0.7-1.4,0.7c-4.2,0-8.5-0.2-10.3-0.2c-1.7,0-5.9,0.2-8.4,0.2
				c-0.9,0-1.5-0.1-1.5-0.7c0-0.3,0.3-0.5,1.1-0.5c0.9,0,1.7-0.1,2.3-0.3c1.3-0.3,1.9-1.7,2.1-3.7c0.2-2.8,0.2-5.6,0.2-6.7
				L943.7,622.5L943.7,622.5z"/>
			<path class="st5" d="M985.9,622.4c-0.3,0-0.5,0.1-0.6,0.5l-3.6,9.6c-0.7,1.7-1,3.3-1,4.1c0,1.2,0.6,2.1,2.7,2.1h1
				c0.8,0,1,0.1,1,0.5c0,0.5-0.4,0.7-1.1,0.7c-2.1,0-5-0.2-7.1-0.2c-0.7,0-4.4,0.2-7.9,0.2c-0.9,0-1.3-0.1-1.3-0.7
				c0-0.4,0.3-0.5,0.8-0.5c0.6,0,1.5-0.1,2.1-0.1c3.1-0.4,4.4-2.7,5.7-6l16.9-42.2c0.8-1.9,1.2-2.7,1.9-2.7c0.6,0,1,0.6,1.7,2.1
				c1.6,3.7,12.4,31.1,16.7,41.3c2.6,6,4.5,7,5.9,7.3c1,0.2,2,0.3,2.8,0.3c0.5,0,0.9,0.1,0.9,0.5c0,0.5-0.6,0.7-3.1,0.7
				c-2.4,0-7.3,0-12.7-0.1c-1.2-0.1-2-0.1-2-0.5c0-0.4,0.3-0.5,0.9-0.6c0.5-0.1,0.9-0.7,0.6-1.5l-5.4-14.2c-0.1-0.3-0.3-0.5-0.7-0.5
				L985.9,622.4L985.9,622.4z M999.6,619c0.3,0,0.4-0.2,0.3-0.4l-6-16.6c-0.1-0.3-0.1-0.6-0.3-0.6c-0.2,0-0.3,0.3-0.4,0.6l-6.2,16.5
				c-0.1,0.3,0,0.5,0.3,0.5H999.6L999.6,619z"/>
			<path class="st5" d="M1029.2,639.1c-1.1-0.5-1.3-0.8-1.3-2.3c0-3.7,0.3-7.7,0.3-8.8c0.1-1,0.3-1.7,0.8-1.7c0.6,0,0.7,0.6,0.7,1.1
				c0,0.9,0.3,2.3,0.6,3.4c1.5,5,5.4,6.8,9.6,6.8c6,0,9-4.1,9-7.7c0-3.3-1-6.4-6.6-10.7l-3.1-2.4c-7.4-5.8-9.9-10.5-9.9-15.9
				c0-7.4,6.2-12.7,15.5-12.7c4.4,0,7.2,0.7,8.9,1.1c0.6,0.1,0.9,0.3,0.9,0.8c0,0.9-0.3,2.8-0.3,8.1c0,1.5-0.2,2-0.7,2
				c-0.5,0-0.7-0.4-0.7-1.2c0-0.6-0.3-2.7-1.7-4.4c-1-1.3-3-3.3-7.3-3.3c-5,0-8,2.9-8,6.9c0,3.1,1.5,5.4,7.1,9.7l1.9,1.4
				c8.1,6.1,11,10.7,11,17.1c0,3.9-1.5,8.5-6.3,11.7c-3.4,2.1-7.1,2.8-10.7,2.8C1035.1,640.8,1032,640.4,1029.2,639.1z"/>
		</g>
		<g>
			<path class="st5" d="M665.7,539.9c-4.5-4-5.7-9.2-5.7-13.6c0-3.1,1-8.6,5.4-12.7c3.3-3.1,7.7-4.9,14.6-4.9c2.9,0,4.6,0.2,6.7,0.5
				c1.8,0.2,3.2,0.6,4.6,0.8c0.5,0,0.7,0.3,0.7,0.6c0,0.4-0.1,0.9-0.2,2.5c-0.1,1.5,0,4.1-0.1,5c0,0.7-0.1,1.1-0.6,1.1
				c-0.4,0-0.5-0.4-0.5-1c0-1.4-0.6-3.1-1.8-4.3c-1.5-1.6-5.1-2.9-9.4-2.9c-4,0-6.7,1-8.7,2.9c-3.4,3.1-4.3,7.5-4.3,12
				c0,11,8.4,16.5,14.6,16.5c4.1,0,6.6-0.5,8.5-2.6c0.8-0.9,1.4-2.2,1.6-3.1c0.1-0.7,0.2-0.9,0.6-0.9c0.3,0,0.4,0.3,0.4,0.7
				c0,0.6-0.6,4.6-1,6.2c-0.2,0.8-0.4,1-1.2,1.3c-1.8,0.7-5.4,1.1-8.3,1.1C675.2,544.9,669.9,543.5,665.7,539.9z"/>
			<path class="st5" d="M722.4,526.8c0-7.9,5.2-18.1,19.1-18.1c11.5,0,18.7,6.7,18.7,17.3s-7.4,19-19.1,19
				C727.7,544.9,722.4,535,722.4,526.8z M753.7,527.7c0-10.4-6-16.8-13.6-16.8c-5.3,0-11.4,3-11.4,14.5c0,9.6,5.3,17.3,14.2,17.3
				C746.2,542.6,753.7,541,753.7,527.7z"/>
			<path class="st5" d="M801,530.9c0,5.9,0,9.1,1,9.9c0.8,0.7,2,1,5.6,1c2.5,0,4.3,0,5.4-1.3c0.6-0.6,1.1-1.9,1.2-2.8
				c0-0.4,0.1-0.7,0.5-0.7c0.3,0,0.4,0.2,0.4,0.8c0,0.5-0.3,4-0.7,5.3c-0.3,1-0.5,1.2-2.9,1.2c-3.3,0-5.7-0.1-7.8-0.1
				c-2.1-0.1-3.7-0.1-5.6-0.1c-0.5,0-1.5,0-2.6,0c-1.1,0-2.3,0.1-3.2,0.1c-0.6,0-0.9-0.1-0.9-0.5c0-0.2,0.2-0.4,0.7-0.4
				c0.7,0,1.2-0.1,1.7-0.2c0.9-0.2,1.2-1.2,1.3-2.5c0.2-1.9,0.2-5.6,0.2-9.9v-8.1c0-7,0-8.3-0.1-9.8c-0.1-1.6-0.5-2.3-2-2.6
				c-0.4-0.1-0.9-0.1-1.5-0.1c-0.5,0-0.8-0.1-0.8-0.4s0.3-0.4,1-0.4c2.2,0,5.1,0.1,6.3,0.1c1.1,0,4.5-0.1,6.3-0.1c0.7,0,1,0.1,1,0.4
				s-0.3,0.4-0.8,0.4c-0.5,0-1.2,0-1.8,0.1c-1.2,0.2-1.6,1-1.7,2.6c-0.1,1.5-0.1,2.8-0.1,9.8L801,530.9L801,530.9z"/>
			<path class="st5" d="M848.7,522.7c0-7,0-8.3-0.1-9.8c-0.1-1.6-0.5-2.3-2-2.6c-0.4-0.1-1.2-0.1-1.8-0.1c-0.5,0-0.8-0.1-0.8-0.4
				s0.3-0.4,1-0.4c1.2,0,2.6,0,3.7,0c1.2,0,2.3,0.1,2.9,0.1c1.5,0,10.7,0,11.6,0c0.9-0.1,1.6-0.2,2-0.3c0.2,0,0.5-0.2,0.7-0.2
				c0.2,0,0.3,0.2,0.3,0.4c0,0.3-0.2,0.9-0.4,3c0,0.5-0.1,2.5-0.2,3.1c0,0.2-0.1,0.5-0.5,0.5c-0.3,0-0.4-0.2-0.4-0.6
				c0-0.3,0-1.1-0.3-1.7c-0.3-0.8-0.8-1.4-3.1-1.7c-0.8-0.1-5.6-0.2-6.6-0.2c-0.2,0-0.3,0.1-0.3,0.5v11.7c0,0.3,0,0.5,0.3,0.5
				c1,0,6.3,0,7.4-0.1c1.1-0.1,1.8-0.2,2.2-0.7c0.3-0.4,0.5-0.6,0.7-0.6c0.2,0,0.3,0.1,0.3,0.4s-0.2,1-0.4,3.4
				c0,0.9-0.2,2.8-0.2,3.1c0,0.4,0,0.9-0.4,0.9c-0.3,0-0.4-0.2-0.4-0.4c0-0.5,0-1.1-0.2-1.7c-0.2-0.9-0.9-1.6-2.6-1.8
				c-0.9-0.1-5.5-0.1-6.6-0.1c-0.2,0-0.3,0.2-0.3,0.5v3.7c0,1.6,0,5.8,0,7.2c0.1,3.2,0.8,3.9,5.6,3.9c1.2,0,3.1,0,4.3-0.6
				c1.2-0.6,1.8-1.5,2.1-3.4c0.1-0.5,0.2-0.7,0.5-0.7c0.4,0,0.4,0.4,0.4,0.8c0,1.1-0.4,4.2-0.6,5.1c-0.3,1.2-0.7,1.2-2.5,1.2
				c-3.5,0-6-0.1-8-0.1c-2-0.1-3.4-0.1-4.8-0.1c-0.5,0-1.5,0-2.6,0c-1.1,0-2.3,0.1-3.2,0.1c-0.6,0-0.9-0.1-0.9-0.5
				c0-0.2,0.2-0.4,0.7-0.4c0.7,0,1.2-0.1,1.7-0.2c0.9-0.2,1.2-1.2,1.3-2.5c0.2-1.9,0.2-5.6,0.2-9.9L848.7,522.7L848.7,522.7z"/>
			<path class="st5" d="M931.4,541.2c0,1.2,0,1.3-0.6,1.7c-3,1.6-7.5,2.1-11.1,2.1c-11.3,0-21.4-5.4-21.4-18.1
				c0-7.4,3.8-12.6,8.1-15.1c4.4-2.7,8.6-3,12.4-3c3.2,0,7.3,0.6,8.2,0.7c1,0.2,2.6,0.5,3.7,0.5c0.6,0,0.6,0.2,0.6,0.6
				c0,0.5-0.3,1.8-0.3,7.6c0,0.7-0.1,1-0.5,1c-0.3,0-0.4-0.2-0.5-0.6c-0.1-1.1-0.4-2.5-1.6-3.8c-1.4-1.5-5.1-3.6-10.3-3.6
				c-2.5,0-5.9,0.2-9.2,2.9c-2.6,2.2-4.3,5.6-4.3,11.3c0,9.9,6.3,17.4,16.1,17.4c1.2,0,2.8,0,3.9-0.5c0.7-0.3,0.9-0.9,0.9-1.7V536
				c0-2.3,0-4.1,0-5.5c0-1.6-0.5-2.3-2-2.6c-0.4-0.1-1.2-0.1-1.8-0.1c-0.4,0-0.7-0.1-0.7-0.4c0-0.4,0.3-0.5,1-0.5
				c2.4,0,5.3,0.1,6.7,0.1c1.4,0,3.9-0.1,5.4-0.1c0.6,0,0.9,0.1,0.9,0.5c0,0.3-0.3,0.4-0.6,0.4c-0.4,0-0.7,0-1.2,0.1
				c-1.2,0.2-1.7,1-1.8,2.6c0,1.4,0,3.2,0,5.6V541.2z"/>
			<path class="st5" d="M969.8,522.7c0-7,0-8.3-0.1-9.8c-0.1-1.6-0.6-2.4-1.6-2.6c-0.5-0.1-1.1-0.2-1.7-0.2c-0.5,0-0.7-0.1-0.7-0.5
				c0-0.3,0.4-0.4,1.1-0.4c1.8,0,4.7,0.1,6,0.1c1.2,0,3.9-0.1,5.6-0.1c0.6,0,1,0.1,1,0.4c0,0.4-0.3,0.5-0.7,0.5s-0.8,0-1.4,0.1
				c-1.2,0.2-1.6,1-1.7,2.6c-0.1,1.5-0.1,2.8-0.1,9.8v8.1c0,4.5,0,8.1,0.2,10.1c0.1,1.2,0.5,2.1,1.8,2.3c0.7,0.1,1.7,0.2,2.4,0.2
				c0.5,0,0.7,0.1,0.7,0.4c0,0.3-0.4,0.5-0.9,0.5c-3.1,0-6-0.1-7.2-0.1c-1.1,0-4,0.1-5.8,0.1c-0.6,0-0.9-0.1-0.9-0.5
				c0-0.2,0.2-0.4,0.7-0.4c0.7,0,1.2-0.1,1.7-0.2c0.9-0.2,1.2-1,1.3-2.3c0.2-1.9,0.2-5.6,0.2-10.1L969.8,522.7L969.8,522.7z"/>
			<path class="st5" d="M1010.6,526.8c0-7.9,5.2-18.1,19.1-18.1c11.5,0,18.7,6.7,18.7,17.3s-7.4,19-19.1,19
				C1016,544.9,1010.6,535,1010.6,526.8z M1041.9,527.7c0-10.4-6-16.8-13.6-16.8c-5.3,0-11.4,3-11.4,14.5c0,9.6,5.3,17.3,14.2,17.3
				C1034.5,542.6,1041.9,541,1041.9,527.7z"/>
		</g>
	</g>
	<g>
		<polygon class="st6" points="1032.8,329.2 1014.2,329.2 1014.2,387.3 1028.6,387.3 1032.8,387.3 1065.5,387.3 1065.5,368.8 
			1032.8,368.8 1032.8,360.6 1065.5,360.6 1065.5,342 1032.8,342 1032.8,331 1065.5,331 1065.5,312.4 1032.8,312.4 		"/>
		<rect x="1149.6" y="312.4" class="st6" width="18.6" height="18.6"/>
		<rect x="1079.8" y="342" class="st6" width="18.6" height="45.2"/>
		<rect x="1149.6" y="342" class="st6" width="18.6" height="45.2"/>
		<path class="st6" d="M1108.8,312.4h-29V331h18.6h14c0,0,8.6,0.7,7.3,10.6c0,0,0,7.2-12.6,8.7v16.3c0,0,36.2-2,31.3-32.6
			C1138.3,334.1,1136.9,312.4,1108.8,312.4"/>
		<path class="st6" d="M1215.7,369.9l-20.4,10.3c0.6,0.4,1,0.7,1,0.7c14.1,12.4,36.7,6.4,36.7,6.4v-17.8
			C1226.8,371.7,1220.5,371.1,1215.7,369.9"/>
		<path class="st6" d="M1206.9,366.6c-5.1-5.3-7-10.3-7.6-14.4l-17.6,8.9c1.9,6.3,5.4,11.2,8.6,14.5l17.2-8.7
			C1207.1,366.8,1206.9,366.6,1206.9,366.6"/>
		<path class="st6" d="M1182.2,339.8L1182.2,339.8c-1.8,5.5-2.3,10.4-1.9,14.9l19.2-9.7c0.4-1.6,0.9-2.6,0.9-2.6
			c3.8-6.5,12.9-15.9,32.5-11.4v-18.6C1232.9,312.4,1190.7,306.3,1182.2,339.8"/>
		<path class="st6" d="M1283.8,369.9l-20.4,10.3c0.6,0.4,1,0.7,1,0.7c14.1,12.4,36.7,6.4,36.7,6.4v-17.8
			C1294.8,371.7,1288.6,371.1,1283.8,369.9"/>
		<path class="st6" d="M1274.9,366.6c-5.1-5.3-7-10.3-7.6-14.4l-17.6,8.9c1.9,6.3,5.4,11.2,8.6,14.5l17.2-8.7
			C1275.1,366.8,1274.9,366.6,1274.9,366.6"/>
		<path class="st6" d="M1250.3,339.8L1250.3,339.8c-1.8,5.5-2.3,10.4-1.9,14.9l19.2-9.7c0.4-1.6,0.9-2.6,0.9-2.6
			c3.8-6.5,12.9-15.9,32.5-11.4v-18.6C1301,312.4,1258.7,306.3,1250.3,339.8"/>
		<polygon class="st6" points="1048.2,410.5 1048.2,446.1 1038.7,446.1 1038.7,432.2 1025.7,432.2 1025.7,446.1 1016.2,446.1 
			1016.2,410.5 1025.7,410.5 1025.7,423.9 1038.7,423.9 1038.7,410.5 		"/>
		<path class="st6" d="M1106.1,439.2h-14.2l-2.6,6.9h-9.7l14.8-35.6h9.4l14.9,35.6h-9.9L1106.1,439.2z M1103.4,431.8l-4.3-11.4
			l-4.3,11.4H1103.4z"/>
		<polygon class="st6" points="1166,433.4 1166,446.1 1156.5,446.1 1156.5,433.2 1143.7,410.5 1153.7,410.5 1161.7,424.7 
			1169.6,410.5 1178.8,410.5 		"/>
		<path class="st6" d="M1230.4,439.2h-14.2l-2.6,6.9h-9.7l14.8-35.6h9.4l14.9,35.6h-9.9L1230.4,439.2z M1227.6,431.8l-4.3-11.4
			l-4.3,11.4H1227.6z"/>
		<path class="st6" d="M1272,442.9l3.1-7.4c3,2.1,7.2,3.5,11.1,3.5c3.9,0,5.5-1.2,5.5-2.9c0-5.6-19.1-1.5-19.1-14.7
			c0-6.3,4.9-11.5,14.9-11.5c4.4,0,8.9,1.1,12.2,3.1l-2.9,7.5c-3.2-1.8-6.4-2.7-9.3-2.7c-4,0-5.4,1.4-5.4,3.2c0,5.4,19,1.4,19,14.5
			c0,6.2-4.9,11.5-14.9,11.5C1280.6,446.8,1275.2,445.2,1272,442.9"/>
	</g>
</g>
</svg>
